<?xml version="1.0" encoding="UTF-8" standalone="no"?>
<!-- Created with Inkscape (http://www.inkscape.org/) -->

<svg
   width="410.09082mm"
   height="163.93774mm"
   viewBox="0 0 410.09082 163.93774"
   version="1.1"
   id="svg5"
   xml:space="preserve"
   inkscape:version="1.2.2 (b0a8486541, 2022-12-01)"
   sodipodi:docname="bio-data2.svg"
   xmlns:inkscape="http://www.inkscape.org/namespaces/inkscape"
   xmlns:sodipodi="http://sodipodi.sourceforge.net/DTD/sodipodi-0.dtd"
   xmlns="http://www.w3.org/2000/svg"
   xmlns:svg="http://www.w3.org/2000/svg"><sodipodi:namedview
     id="namedview7"
     pagecolor="#ffffff"
     bordercolor="#666666"
     borderopacity="1.0"
     inkscape:showpageshadow="2"
     inkscape:pageopacity="0.0"
     inkscape:pagecheckerboard="0"
     inkscape:deskcolor="#d1d1d1"
     inkscape:document-units="mm"
     showgrid="false"
     inkscape:zoom="0.53453904"
     inkscape:cx="853.07146"
     inkscape:cy="419.98803"
     inkscape:window-width="1920"
     inkscape:window-height="1011"
     inkscape:window-x="0"
     inkscape:window-y="32"
     inkscape:window-maximized="1"
     inkscape:current-layer="g5147"
     showguides="true"><sodipodi:guide
       position="2300.5664,-803.25128"
       orientation="0,-1"
       id="guide1148"
       inkscape:locked="false" /><sodipodi:guide
       position="1218.7091,-894.90233"
       orientation="0,-1"
       id="guide1150"
       inkscape:locked="false" /><sodipodi:guide
       position="1070.7252,-907.27557"
       orientation="0,-1"
       id="guide1721"
       inkscape:locked="false" /><sodipodi:guide
       position="566.42284,-573.14428"
       orientation="1,0"
       id="guide26498"
       inkscape:locked="false" /><sodipodi:guide
       position="-721.95747,-451.92676"
       orientation="1,0"
       id="guide25035"
       inkscape:locked="false" /><sodipodi:guide
       position="-692.99497,-451.83926"
       orientation="1,0"
       id="guide25037"
       inkscape:locked="false" /><sodipodi:guide
       position="-676.71997,-435.91426"
       orientation="1,0"
       id="guide26541"
       inkscape:locked="false" /><sodipodi:guide
       position="-558.94498,-450.26426"
       orientation="1,0"
       id="guide26543"
       inkscape:locked="false" /><sodipodi:guide
       position="410.72998,1.9358269"
       orientation="1,0"
       id="guide1493"
       inkscape:locked="false" /><sodipodi:guide
       position="-0.1700075,-47.764171"
       orientation="1,0"
       id="guide1495"
       inkscape:locked="false" /></sodipodi:namedview><defs
     id="defs2"><linearGradient
       id="linearGradient26068"
       inkscape:swatch="solid"><stop
         style="stop-color:#ffff4f;stop-opacity:1;"
         offset="0"
         id="stop26066" /></linearGradient><linearGradient
       id="linearGradient9651"
       inkscape:swatch="solid"><stop
         style="stop-color:#0e45ff;stop-opacity:1;"
         offset="0"
         id="stop9649" /></linearGradient><clipPath
       clipPathUnits="userSpaceOnUse"
       id="clipPath3921"><path
         d="m 7982.21,6246.88 c 0,-605.64 -490.97,-1096.6 -1096.61,-1096.6 -605.63,0 -1096.61,490.96 -1096.61,1096.6 0,605.65 490.98,1096.61 1096.61,1096.61 605.64,0 1096.61,-490.96 1096.61,-1096.61 z"
         id="path3919" /></clipPath><linearGradient
       x1="0"
       y1="0"
       x2="1"
       y2="0"
       gradientUnits="userSpaceOnUse"
       gradientTransform="matrix(-1550.83,-1550.83,-1550.83,1550.83,7661.02,7022.3)"
       spreadMethod="pad"
       id="linearGradient3927"><stop
         style="stop-opacity:1;stop-color:#ff0000"
         offset="0"
         id="stop3923" /><stop
         style="stop-opacity:1;stop-color:#850000"
         offset="1"
         id="stop3925" /></linearGradient></defs><g
     id="g12961"
     inkscape:label="back"
     style="display:inline"
     inkscape:groupmode="layer"
     transform="translate(230.82999,1326.102)"><g
       id="g18035"
       transform="translate(16.933338)"><g
         id="g20448"
         inkscape:label="SOCIAL MEDIA"
         transform="matrix(0.39627107,0,0,0.39627107,525.73029,-188.22319)"
         style="stroke-width:2.52352"><text
           xml:space="preserve"
           style="font-style:normal;font-variant:normal;font-weight:normal;font-stretch:normal;font-size:80.0001px;line-height:1.25;font-family:serif;-inkscape-font-specification:'serif, Normal';font-variant-ligatures:normal;font-variant-position:normal;font-variant-caps:normal;font-variant-numeric:normal;font-variant-alternates:normal;font-variant-east-asian:normal;font-feature-settings:normal;font-variation-settings:normal;text-indent:0;text-align:start;text-decoration-line:none;text-decoration-style:solid;text-decoration-color:#000000;letter-spacing:normal;word-spacing:normal;text-transform:none;writing-mode:lr-tb;direction:ltr;text-orientation:mixed;dominant-baseline:auto;baseline-shift:baseline;text-anchor:start;white-space:normal;shape-padding:0;shape-margin:0;inline-size:0;opacity:1;vector-effect:none;fill:#000000;fill-opacity:1;stroke-width:4.2205;stroke-linecap:butt;stroke-linejoin:miter;stroke-miterlimit:4;stroke-dasharray:none;stroke-dashoffset:0;stroke-opacity:1;-inkscape-stroke:none;stop-color:#000000;stop-opacity:1"
           x="569.3045"
           y="-970.12848"
           id="text23263"
           transform="matrix(0.15819966,0,0,0.15819966,-805.01154,23.245929)"><tspan
             sodipodi:role="line"
             id="tspan23261"
             x="569.3045"
             y="-970.12848"
             style="stroke-width:4.2205" /></text><text
           xml:space="preserve"
           style="font-style:normal;font-variant:normal;font-weight:normal;font-stretch:normal;font-size:80.0001px;line-height:1.25;font-family:serif;-inkscape-font-specification:'serif, Normal';font-variant-ligatures:normal;font-variant-position:normal;font-variant-caps:normal;font-variant-numeric:normal;font-variant-alternates:normal;font-variant-east-asian:normal;font-feature-settings:normal;font-variation-settings:normal;text-indent:0;text-align:start;text-decoration-line:none;text-decoration-style:solid;text-decoration-color:#000000;letter-spacing:normal;word-spacing:normal;text-transform:none;writing-mode:lr-tb;direction:ltr;text-orientation:mixed;dominant-baseline:auto;baseline-shift:baseline;text-anchor:start;white-space:normal;shape-padding:0;shape-margin:0;inline-size:0;opacity:1;vector-effect:none;fill:#000000;fill-opacity:1;stroke-width:4.2205;stroke-linecap:butt;stroke-linejoin:miter;stroke-miterlimit:4;stroke-dasharray:none;stroke-dashoffset:0;stroke-opacity:1;-inkscape-stroke:none;stop-color:#000000;stop-opacity:1"
           x="569.3045"
           y="-970.12848"
           id="text17913"
           transform="matrix(0.15819966,0,0,0.15819966,-390.86648,271.16279)"><tspan
             sodipodi:role="line"
             id="tspan17911"
             x="569.3045"
             y="-970.12848"
             style="stroke-width:4.2205">+91-9263767441</tspan></text></g><text
         xml:space="preserve"
         style="font-style:normal;font-variant:normal;font-weight:normal;font-stretch:normal;font-size:80.0001px;line-height:1.25;font-family:serif;-inkscape-font-specification:'serif, Normal';font-variant-ligatures:normal;font-variant-position:normal;font-variant-caps:normal;font-variant-numeric:normal;font-variant-alternates:normal;font-variant-east-asian:normal;font-feature-settings:normal;font-variation-settings:normal;text-indent:0;text-align:start;text-decoration-line:none;text-decoration-style:solid;text-decoration-color:#000000;letter-spacing:normal;word-spacing:normal;text-transform:none;writing-mode:lr-tb;direction:ltr;text-orientation:mixed;dominant-baseline:auto;baseline-shift:baseline;text-anchor:start;white-space:normal;shape-padding:0;shape-margin:0;inline-size:0;opacity:1;vector-effect:none;fill:#000000;fill-opacity:1;stroke-width:3.72387;stroke-linecap:butt;stroke-linejoin:miter;stroke-miterlimit:4;stroke-dasharray:none;stroke-dashoffset:0;stroke-opacity:1;-inkscape-stroke:none;stop-color:#000000;stop-opacity:1"
         x="569.3045"
         y="-970.12848"
         id="text17897"
         transform="matrix(0.07105064,0,0,0.07105064,357.62972,-82.457988)"><tspan
           sodipodi:role="line"
           id="tspan17893"
           x="569.3045"
           y="-970.12848"
           style="font-style:normal;font-variant:normal;font-weight:bold;font-stretch:normal;font-family:serif;-inkscape-font-specification:'serif Bold';stroke-width:3.72387">Support 24 X 7</tspan><tspan
           sodipodi:role="line"
           x="569.3045"
           y="-870.12836"
           style="font-style:normal;font-variant:normal;font-weight:bold;font-stretch:normal;font-family:serif;-inkscape-font-specification:'serif Bold';stroke-width:3.72387"
           id="tspan17895" /></text><g
         id="g17919"
         transform="matrix(0.3931436,0,0,0.3931436,312.44701,-43.588789)"
         style="stroke-width:2.54359"><ellipse
           style="opacity:1;fill:#ffffff;fill-opacity:1;stroke:#ffffff;stroke-width:0.12718;stroke-linejoin:round;stroke-dasharray:none;stroke-opacity:1"
           id="ellipse17915"
           cx="226.31525"
           cy="-253.36406"
           rx="9.0725021"
           ry="8.9262142" /><path
           d="m 223.51294,-253.97409 c -0.0597,0.005 -0.11377,0.0377 -0.1452,0.0889 -0.0314,0.0512 -0.0364,0.11409 -0.0138,0.16971 0.32025,0.78036 0.78569,1.47963 1.38376,2.07895 0.003,0.003 0.006,0.006 0.009,0.009 0.59932,0.59807 1.29891,1.06351 2.07895,1.38313 0.0553,0.0229 0.11848,0.0179 0.16971,-0.0135 0.0512,-0.0314 0.0842,-0.0855 0.0889,-0.1452 0.0233,-0.28945 0.10246,-0.56444 0.23571,-0.81932 l 4.0325,0.58141 c 0.0154,0.0786 0.0261,0.1584 0.0327,0.23854 0.005,0.0559 0.007,0.11503 0.007,0.17505 0,1.18986 -0.96766,2.15752 -2.15752,2.15752 -2.15123,0 -4.17393,-0.83787 -5.69566,-2.35897 -1.52141,-1.52142 -2.35959,-3.54442 -2.35959,-5.69597 0,-1.18986 0.96797,-2.15783 2.15783,-2.15783 0.06,0 0.11879,0.003 0.17568,0.007 0.0798,0.007 0.15965,0.0173 0.23822,0.0327 l 0.58141,4.03249 c -0.25519,0.13357 -0.5305,0.21277 -0.81995,0.23571 z m 2.77319,-8.60273 c -5.19187,0 -9.40099,4.20912 -9.40099,9.40099 0,5.19218 4.20912,9.40131 9.40099,9.40131 5.19218,0 9.4013,-4.20913 9.4013,-9.40131 0,-5.19187 -4.20912,-9.40099 -9.4013,-9.40099"
           style="fill:#211d1d;fill-opacity:1;fill-rule:nonzero;stroke:none;stroke-width:0.0897324"
           id="path17917" /></g><g
         id="g17925"
         transform="matrix(0.44356036,0,0,0.44356036,276.42582,-19.565681)"
         style="stroke-width:2.25448"><ellipse
           style="opacity:1;fill:#ffffff;fill-opacity:1;stroke:#ffffff;stroke-width:0.112724;stroke-linejoin:round;stroke-dasharray:none;stroke-opacity:1"
           id="ellipse17921"
           cx="281.8519"
           cy="-257.96667"
           rx="6.5171866"
           ry="6.0502939" /><path
           d="m 279.84644,-257.58771 1.81422,1.72704 c 0.008,0.007 0.0164,0.0145 0.0256,0.02 0.009,0.006 0.0183,0.0106 0.0284,0.0145 0.005,0.002 0.01,0.002 0.0145,0.004 0.005,0.002 0.0101,0.003 0.0153,0.005 0.006,7.9e-4 0.0131,0.002 0.0195,0.002 0.004,3.6e-4 0.007,8e-4 0.0114,8e-4 0.003,0 0.006,-8e-4 0.01,-8e-4 0.0226,-0.002 0.0446,-0.007 0.0652,-0.0178 0.0142,-0.007 0.0279,-0.0159 0.0401,-0.0273 l 1.81312,-1.72705 v 0 0 l 3.35714,3.19615 h -10.57145 z m -3.60702,-3.43515 3.3655,3.20478 -3.3655,3.2045 z m 0.24986,-0.22229 h 10.57146 l -3.47108,3.30562 c -3.6e-4,5.5e-4 -5.4e-4,5.5e-4 -8e-4,8e-4 l -1.81312,1.72704 z m 10.82133,6.63157 -3.36523,-3.20422 3.36523,-3.20506 z m -5.53573,-11.53721 c -4.60175,0 -8.33244,3.7307 -8.33244,8.33243 0,4.60202 3.73069,8.33271 8.33244,8.33271 4.60201,0 8.33271,-3.73069 8.33271,-8.33271 0,-4.60173 -3.7307,-8.33243 -8.33271,-8.33243"
           style="fill:#211d1d;fill-opacity:1;fill-rule:nonzero;stroke:none;stroke-width:0.079533"
           id="path17923" /></g><text
         xml:space="preserve"
         style="font-style:normal;font-variant:normal;font-weight:normal;font-stretch:normal;font-size:80.0001px;line-height:1.25;font-family:serif;-inkscape-font-specification:'serif, Normal';font-variant-ligatures:normal;font-variant-position:normal;font-variant-caps:normal;font-variant-numeric:normal;font-variant-alternates:normal;font-variant-east-asian:normal;font-feature-settings:normal;font-variation-settings:normal;text-indent:0;text-align:start;text-decoration-line:none;text-decoration-style:solid;text-decoration-color:#000000;letter-spacing:normal;word-spacing:normal;text-transform:none;writing-mode:lr-tb;direction:ltr;text-orientation:mixed;dominant-baseline:auto;baseline-shift:baseline;text-anchor:start;white-space:normal;shape-padding:0;shape-margin:0;inline-size:0;opacity:1;vector-effect:none;fill:#000000;fill-opacity:1;stroke-width:4.2205;stroke-linecap:butt;stroke-linejoin:miter;stroke-miterlimit:4;stroke-dasharray:none;stroke-dashoffset:0;stroke-opacity:1;-inkscape-stroke:none;stop-color:#000000;stop-opacity:1"
         x="569.3045"
         y="-970.12848"
         id="text17931"
         transform="matrix(0.06268995,0,0,0.06268995,370.56623,-72.298069)"><tspan
           sodipodi:role="line"
           id="tspan17927"
           x="569.3045"
           y="-970.12848"
           style="stroke-width:4.2205">care@ditvi.org</tspan><tspan
           sodipodi:role="line"
           x="569.3045"
           y="-870.12836"
           style="stroke-width:4.2205"
           id="tspan17929" /></text><g
         id="g17937"
         transform="matrix(0.40041276,0,0,0.40041276,312.99468,-6.9768318)"
         style="stroke-width:2.49742"><ellipse
           style="opacity:1;fill:#ffffff;fill-opacity:1;stroke:#ffffff;stroke-width:0.124871;stroke-linejoin:round;stroke-dasharray:none;stroke-opacity:1"
           id="ellipse17933"
           cx="220.95311"
           cy="-295.3891"
           rx="6.423893"
           ry="6.1579213" /><path
           d="m 224.90145,-293.21266 c 0.19626,-0.0818 0.38942,-0.1694 0.57826,-0.26136 -0.21661,0.52735 -0.52025,1.01026 -0.893,1.43085 0.12744,-0.38418 0.23235,-0.77514 0.31474,-1.16949 z m -8.18148,-3.5e-4 c 0.0824,0.39497 0.1873,0.78593 0.31443,1.1698 -0.37275,-0.42089 -0.67639,-0.9035 -0.89332,-1.43116 0.18947,0.0923 0.38264,0.17959 0.57889,0.26136 z m 0,-4.34716 c -0.19625,0.0821 -0.38942,0.1694 -0.57858,0.26167 0.21693,-0.52767 0.52057,-1.01027 0.89332,-1.43085 -0.12744,0.38417 -0.23235,0.77513 -0.31474,1.16918 z m 8.18241,0.001 c -0.083,-0.39559 -0.18823,-0.78656 -0.31536,-1.16949 0.37244,0.42028 0.67608,0.90288 0.89269,1.42992 -0.18823,-0.0916 -0.38077,-0.17866 -0.57733,-0.26043 z m 0.22402,1.98813 c -0.009,-0.52057 -0.0564,-1.0402 -0.14163,-1.5515 0.23081,0.10245 0.45514,0.2126 0.67114,0.32863 0.11356,0.39034 0.18113,0.80013 0.19656,1.22287 z m 0,0.36936 h 0.72607 c -0.0154,0.42275 -0.083,0.83253 -0.19656,1.22318 -0.21723,0.11602 -0.44187,0.22619 -0.67145,0.32832 0.0852,-0.51439 0.13269,-1.03403 0.14194,-1.5515 z m -2.30843,0 h 1.93907 c -0.0105,0.57425 -0.07,1.15159 -0.17743,1.7206 -0.66559,0.26259 -1.35494,0.45576 -2.05478,0.57487 0.18144,-0.75323 0.27957,-1.52312 0.29314,-2.29547 z m -3.32703,2.35379 c -0.19748,-0.77205 -0.30456,-1.56261 -0.31844,-2.35379 h 3.27642 c -0.0145,0.79272 -0.12189,1.58297 -0.31968,2.35379 -0.87295,0.11386 -1.76534,0.11386 -2.6383,0 z m -2.4482,-0.63288 c -0.10862,-0.56562 -0.16848,-1.14357 -0.17867,-1.72091 h 1.93907 c 0.0132,0.77112 0.11109,1.54132 0.29253,2.29547 -0.69923,-0.11942 -1.38796,-0.31228 -2.05293,-0.57456 z m -0.54772,-1.72091 c 0.009,0.51994 0.0564,1.03958 0.14225,1.55119 -0.22988,-0.10213 -0.45452,-0.21199 -0.67207,-0.32832 -0.11355,-0.39034 -0.18113,-0.80012 -0.19656,-1.22287 z m 0,-0.36936 h -0.72638 c 0.0154,-0.42305 0.083,-0.83284 0.19687,-1.22349 0.21693,-0.11633 0.44157,-0.22618 0.67145,-0.32863 -0.0852,0.5147 -0.13299,1.03464 -0.14194,1.55212 z m 2.30843,0 h -1.93938 c 0.0105,-0.57425 0.0704,-1.1519 0.17774,-1.72122 0.66466,-0.26167 1.3537,-0.45453 2.05417,-0.57394 -0.18145,0.75353 -0.27926,1.52342 -0.29253,2.29516 z m 3.32671,-2.35348 c 0.19749,0.77236 0.30425,1.5623 0.31876,2.35348 h -3.27642 c 0.0145,-0.79211 0.12127,-1.58236 0.31875,-2.35379 0.42152,-0.0553 0.85352,-0.0855 1.28675,-0.087 0.45299,-5.9e-4 0.90597,0.029 1.35216,0.0873 z m 2.44914,0.63288 c 0.1077,0.56468 0.16756,1.14203 0.17774,1.7206 h -1.93907 c -0.0136,-0.77081 -0.11139,-1.5407 -0.29252,-2.29485 0.70014,0.1191 1.38919,0.31196 2.05385,0.57425 z m -0.60387,-2.02177 c 0.21291,0.51316 0.38448,1.04668 0.51254,1.591 -0.67053,-0.24716 -1.36328,-0.42552 -2.06528,-0.53383 -0.20736,-0.73964 -0.49063,-1.4506 -0.84641,-2.11866 0.89949,0.13732 1.72091,0.51409 2.39915,1.06149 z m -3.16472,-1.11945 c 0.10646,0 0.2123,0.004 0.31721,0.0108 0.37492,0.6628 0.67547,1.3716 0.89548,2.11248 -0.41287,-0.0478 -0.83129,-0.0725 -1.24663,-0.0713 -0.39621,0.002 -0.79149,0.0259 -1.17937,0.0707 0.22002,-0.73872 0.52057,-1.4472 0.89517,-2.11186 0.10522,-0.007 0.21106,-0.0108 0.31814,-0.0108 z m -0.76588,0.058 c -0.35609,0.66991 -0.63936,1.38086 -0.84703,2.11897 -0.70138,0.108 -1.39382,0.28604 -2.06373,0.53259 0.12683,-0.54092 0.29808,-1.07414 0.51131,-1.58976 0.67824,-0.54772 1.49997,-0.92448 2.39945,-1.0618 z m -2.39883,8.91527 c -0.21323,-0.51439 -0.38479,-1.0476 -0.51193,-1.59038 0.67053,0.24716 1.36327,0.42583 2.06466,0.53383 0.20736,0.7378 0.49063,1.44874 0.8461,2.11835 -0.89948,-0.13763 -1.7209,-0.51409 -2.39883,-1.0618 z m 3.16471,1.11981 c -0.10708,0 -0.21323,-0.005 -0.31844,-0.0111 -0.3743,-0.66435 -0.67424,-1.37283 -0.89394,-2.11156 0.40238,0.0463 0.80877,0.071 1.21238,0.071 0.40362,0 0.81,-0.0247 1.21238,-0.071 -0.21908,0.73842 -0.51964,1.4469 -0.89486,2.11156 -0.10522,0.007 -0.21076,0.0111 -0.31752,0.0111 z m 0.76526,-0.058 c 0.3564,-0.66991 0.63997,-1.38086 0.84641,-2.11866 0.7017,-0.108 1.39444,-0.28635 2.06497,-0.53352 -0.12683,0.54185 -0.2987,1.07538 -0.51254,1.59069 -0.67793,0.54741 -1.49935,0.92386 -2.39884,1.06149 z m -0.76526,-14.21901 c -5.09792,0 -9.23063,4.1327 -9.23063,9.23031 0,5.09792 4.13271,9.23063 9.23063,9.23063 5.09761,0 9.23032,-4.13271 9.23032,-9.23063 0,-5.09761 -4.13271,-9.23031 -9.23032,-9.23031"
           style="fill:#211d1d;fill-opacity:1;fill-rule:nonzero;stroke:none;stroke-width:0.0881033"
           id="path17935" /></g><text
         xml:space="preserve"
         style="font-style:normal;font-variant:normal;font-weight:normal;font-stretch:normal;font-size:80.0001px;line-height:1.25;font-family:serif;-inkscape-font-specification:'serif, Normal';font-variant-ligatures:normal;font-variant-position:normal;font-variant-caps:normal;font-variant-numeric:normal;font-variant-alternates:normal;font-variant-east-asian:normal;font-feature-settings:normal;font-variation-settings:normal;text-indent:0;text-align:start;text-decoration-line:none;text-decoration-style:solid;text-decoration-color:#000000;letter-spacing:normal;word-spacing:normal;text-transform:none;writing-mode:lr-tb;direction:ltr;text-orientation:mixed;dominant-baseline:auto;baseline-shift:baseline;text-anchor:start;white-space:normal;shape-padding:0;shape-margin:0;inline-size:0;opacity:1;vector-effect:none;fill:#000000;fill-opacity:1;stroke-width:4.2205;stroke-linecap:butt;stroke-linejoin:miter;stroke-miterlimit:4;stroke-dasharray:none;stroke-dashoffset:0;stroke-opacity:1;-inkscape-stroke:none;stop-color:#000000;stop-opacity:1"
         x="569.3045"
         y="-970.12848"
         id="text17943"
         transform="matrix(0.06268995,0,0,0.06268995,370.56623,-63.302356)"><tspan
           sodipodi:role="line"
           id="tspan17939"
           x="569.3045"
           y="-970.12848"
           style="stroke-width:4.2205">www.ditvi.org</tspan><tspan
           sodipodi:role="line"
           x="569.3045"
           y="-870.12836"
           style="stroke-width:4.2205"
           id="tspan17941" /></text><g
         id="g18729"
         inkscape:label="SOCIAL MEDIA"
         transform="matrix(0.39627107,0,0,0.39627107,525.73029,-161.76484)"
         style="stroke-width:2.52352"><text
           xml:space="preserve"
           style="font-style:normal;font-variant:normal;font-weight:normal;font-stretch:normal;font-size:80.0001px;line-height:1.25;font-family:serif;-inkscape-font-specification:'serif, Normal';font-variant-ligatures:normal;font-variant-position:normal;font-variant-caps:normal;font-variant-numeric:normal;font-variant-alternates:normal;font-variant-east-asian:normal;font-feature-settings:normal;font-variation-settings:normal;text-indent:0;text-align:start;text-decoration-line:none;text-decoration-style:solid;text-decoration-color:#000000;letter-spacing:normal;word-spacing:normal;text-transform:none;writing-mode:lr-tb;direction:ltr;text-orientation:mixed;dominant-baseline:auto;baseline-shift:baseline;text-anchor:start;white-space:normal;shape-padding:0;shape-margin:0;inline-size:0;opacity:1;vector-effect:none;fill:#000000;fill-opacity:1;stroke-width:4.2205;stroke-linecap:butt;stroke-linejoin:miter;stroke-miterlimit:4;stroke-dasharray:none;stroke-dashoffset:0;stroke-opacity:1;-inkscape-stroke:none;stop-color:#000000;stop-opacity:1"
           x="569.3045"
           y="-970.12848"
           id="text18723"
           transform="matrix(0.15819966,0,0,0.15819966,-805.01154,23.245929)"><tspan
             sodipodi:role="line"
             id="tspan18721"
             x="569.3045"
             y="-970.12848"
             style="stroke-width:4.2205" /></text><text
           xml:space="preserve"
           style="font-style:normal;font-variant:normal;font-weight:normal;font-stretch:normal;font-size:80.0001px;line-height:1.25;font-family:serif;-inkscape-font-specification:'serif, Normal';font-variant-ligatures:normal;font-variant-position:normal;font-variant-caps:normal;font-variant-numeric:normal;font-variant-alternates:normal;font-variant-east-asian:normal;font-feature-settings:normal;font-variation-settings:normal;text-indent:0;text-align:start;text-decoration-line:none;text-decoration-style:solid;text-decoration-color:#000000;letter-spacing:normal;word-spacing:normal;text-transform:none;writing-mode:lr-tb;direction:ltr;text-orientation:mixed;dominant-baseline:auto;baseline-shift:baseline;text-anchor:start;white-space:normal;shape-padding:0;shape-margin:0;inline-size:0;opacity:1;vector-effect:none;fill:#000000;fill-opacity:1;stroke-width:4.2205;stroke-linecap:butt;stroke-linejoin:miter;stroke-miterlimit:4;stroke-dasharray:none;stroke-dashoffset:0;stroke-opacity:1;-inkscape-stroke:none;stop-color:#000000;stop-opacity:1"
           x="569.3045"
           y="-970.12848"
           id="text18727"
           transform="matrix(0.15819966,0,0,0.15819966,-390.86648,271.16279)"><tspan
             sodipodi:role="line"
             id="tspan18725"
             x="569.3045"
             y="-970.12848"
             style="stroke-width:4.2205">+91-9263767441</tspan></text></g><g
         id="g6417"
         transform="matrix(0.00337039,0,0,-0.00337039,346.20706,-120.93876)"
         style="stroke-width:10.467"><g
           id="g3915"
           transform="translate(-10643.788,428.02125)"
           style="stroke-width:10.467"><g
             id="g3917"
             clip-path="url(#clipPath3921)"
             style="stroke-width:10.467"><path
               d="m 7982.21,6246.88 c 0,-605.64 -490.97,-1096.6 -1096.61,-1096.6 -605.63,0 -1096.61,490.96 -1096.61,1096.6 0,605.65 490.98,1096.61 1096.61,1096.61 605.64,0 1096.61,-490.96 1096.61,-1096.61"
               style="fill:url(#linearGradient3927);fill-opacity:1;fill-rule:nonzero;stroke:none;stroke-width:10.467"
               id="path3929" /></g></g><path
           d="m -3567.078,6654.2013 -301.95,-149.38 c -11.84,-6.41 -52.05,2.16 -52.05,15.63 v 306.64 c 0,13.64 40.55,22.19 52.39,15.44 l 289.04,-157.25 c 12.11,-6.9 24.83,-24.44 12.57,-31.08 z m 396,180.16 c 0,145.43 -117.9,263.33 -263.33,263.33 h -673.35 c -145.43,0 -263.32,-117.9 -263.32,-263.33 v -313.35 c 0,-145.43 117.89,-263.32 263.32,-263.32 h 673.35 c 145.43,0 263.33,117.89 263.33,263.32 v 313.35"
           style="fill:#ffffff;fill-opacity:1;fill-rule:nonzero;stroke:none;stroke-width:10.467"
           id="path3931" /></g><g
         id="g4233"
         inkscape:export-filename="../../../../bio-data.png"
         inkscape:export-xdpi="96"
         inkscape:export-ydpi="96"><g
           id="g5147"
           inkscape:export-filename="../../../../bio-data2.png"
           inkscape:export-xdpi="96"
           inkscape:export-ydpi="96"><g
             id="g350"
             inkscape:export-filename="../../../../../Ditvi Resume/ditvi-resume/src/assets/logo.png"
             inkscape:export-xdpi="96"
             inkscape:export-ydpi="96"><text
               xml:space="preserve"
               style="font-style:normal;font-variant:normal;font-weight:normal;font-stretch:normal;font-size:80.0001px;line-height:1.25;font-family:serif;-inkscape-font-specification:'serif, Normal';font-variant-ligatures:normal;font-variant-position:normal;font-variant-caps:normal;font-variant-numeric:normal;font-variant-alternates:normal;font-variant-east-asian:normal;font-feature-settings:normal;font-variation-settings:normal;text-indent:0;text-align:start;text-decoration-line:none;text-decoration-style:solid;text-decoration-color:#000000;letter-spacing:normal;word-spacing:normal;text-transform:none;writing-mode:lr-tb;direction:ltr;text-orientation:mixed;dominant-baseline:auto;baseline-shift:baseline;text-anchor:start;white-space:normal;shape-padding:0;shape-margin:0;inline-size:0;opacity:1;vector-effect:none;fill:#65318e;fill-opacity:1;stroke-width:0.147825;stroke-linecap:butt;stroke-linejoin:miter;stroke-miterlimit:4;stroke-dasharray:none;stroke-dashoffset:0;stroke-opacity:1;-inkscape-stroke:none;stop-color:#000000;stop-opacity:1"
               x="-869.6944"
               y="-5002.9219"
               id="text1383"
               transform="matrix(1.7898501,0,0,1.7898501,1304.85,7730.6146)"><tspan
                 sodipodi:role="line"
                 id="tspan1381"
                 x="-869.6944"
                 y="-5002.9219"
                 style="font-style:normal;font-variant:normal;font-weight:bold;font-stretch:normal;font-family:serif;-inkscape-font-specification:'serif Bold';fill:#65318e;fill-opacity:1;stroke-width:0.147825">DITVI</tspan></text><text
               xml:space="preserve"
               style="font-style:normal;font-variant:normal;font-weight:normal;font-stretch:normal;font-size:80.0001px;line-height:1.25;font-family:serif;-inkscape-font-specification:'serif, Normal';font-variant-ligatures:normal;font-variant-position:normal;font-variant-caps:normal;font-variant-numeric:normal;font-variant-alternates:normal;font-variant-east-asian:normal;font-feature-settings:normal;font-variation-settings:normal;text-indent:0;text-align:start;text-decoration-line:none;text-decoration-style:solid;text-decoration-color:#000000;letter-spacing:13.4615px;word-spacing:0.0112179px;text-transform:none;writing-mode:lr-tb;direction:ltr;text-orientation:mixed;dominant-baseline:auto;baseline-shift:baseline;text-anchor:start;white-space:normal;shape-padding:0;shape-margin:0;inline-size:0;opacity:1;vector-effect:none;fill:#000000;fill-opacity:1;stroke-width:0.27741;stroke-linecap:butt;stroke-linejoin:miter;stroke-miterlimit:4;stroke-dasharray:none;stroke-dashoffset:0;stroke-opacity:1;-inkscape-stroke:none;stop-color:#000000;stop-opacity:1"
               x="-869.6944"
               y="-5002.9219"
               id="text1491"
               transform="matrix(0.95376558,0,0,0.95376558,580.37436,3613.4503)"><tspan
                 sodipodi:role="line"
                 id="tspan1489"
                 x="-869.6944"
                 y="-5002.9219"
                 style="fill:#000000;fill-opacity:1;stroke-width:0.27741"
                 dx="0.11">BIODATA</tspan></text></g></g></g></g></g></svg>
