<svg width="517" height="457" viewBox="0 0 517 457" fill="none" xmlns="http://www.w3.org/2000/svg">
<path d="M258.031 453.478C382.316 453.478 483.07 352.725 483.07 228.439C483.07 104.153 382.316 3.3999 258.031 3.3999C133.745 3.3999 32.9917 104.153 32.9917 228.439C32.9917 352.725 133.745 453.478 258.031 453.478Z" stroke="#FF870F" stroke-width="6.80315" stroke-linejoin="round" stroke-dasharray="20.41 6.8"/>
<path d="M293.533 256.386H250.987C217.92 256.386 191.115 283.191 191.115 316.258V372.826C214.127 388.865 242.084 398.298 272.26 398.298C302.436 398.298 330.395 388.865 353.405 372.826V316.258C353.405 283.191 326.6 256.386 293.533 256.386Z" stroke="#FF870F" stroke-width="8" stroke-miterlimit="10" stroke-linejoin="round"/>
<path d="M213.767 186.359H205.103C197.377 186.359 191.115 180.096 191.115 172.371V156.084C191.115 148.359 197.377 142.096 205.103 142.096H213.767V186.359Z" stroke="#FF870F" stroke-width="8" stroke-miterlimit="10" stroke-linejoin="round"/>
<path d="M330.753 186.359H339.417C347.141 186.359 353.405 180.096 353.405 172.371V156.084C353.405 148.359 347.141 142.096 339.417 142.096H330.753V186.359Z" stroke="#FF870F" stroke-width="8" stroke-miterlimit="10" stroke-linejoin="round"/>
<path d="M340.236 185.143C340.236 185.143 343.796 221.736 282.127 220.09" stroke="#FF870F" stroke-width="8" stroke-miterlimit="10" stroke-linejoin="round"/>
<path d="M286.189 219.14C286.601 223.618 283.304 227.583 278.827 227.995C274.348 228.408 270.383 225.111 269.971 220.632C269.559 216.154 272.855 212.188 277.333 211.776C281.812 211.364 285.777 214.66 286.189 219.14Z" fill="#FF870F" stroke="#FF870F" stroke-width="0.133333"/>
<path d="M283.085 158.591C283.085 158.591 283.085 141.486 295.216 141.336C307.347 141.186 307.083 158.591 307.083 158.591" stroke="#FF870F" stroke-width="5.33333" stroke-miterlimit="10" stroke-linecap="round" stroke-linejoin="round"/>
<path d="M237.684 158.591C237.684 158.591 237.684 141.486 249.815 141.336C261.944 141.186 261.681 158.591 261.681 158.591" stroke="#FF870F" stroke-width="5.33333" stroke-miterlimit="10" stroke-linecap="round" stroke-linejoin="round"/>
<path d="M252.309 182.964H292.211C292.211 182.964 295.439 208.224 272.26 208.224C249.083 208.224 252.309 182.964 252.309 182.964Z" stroke="#FF870F" stroke-width="5.33333" stroke-miterlimit="10" stroke-linecap="round" stroke-linejoin="round"/>
<path d="M269.458 173.532C269.458 173.532 273.128 177.178 276.704 173.532" stroke="#FF870F" stroke-width="5.33333" stroke-miterlimit="10" stroke-linecap="round" stroke-linejoin="round"/>
<path d="M202.44 142.636C202.44 142.636 198.056 73.8242 273.08 73.8242C348.105 73.8242 342.087 142.636 342.087 142.636" stroke="#FF870F" stroke-width="10.6667" stroke-miterlimit="10" stroke-linejoin="round"/>
<path d="M205.201 380.628V337.072" stroke="#FF870F" stroke-width="5.33333" stroke-miterlimit="10" stroke-linecap="round" stroke-linejoin="round"/>
<path d="M205.201 310.628V322.85" stroke="#FF870F" stroke-width="5.33333" stroke-miterlimit="10" stroke-linecap="round" stroke-linejoin="round"/>
<path d="M202.44 186.098V164.227" stroke="#FF870F" stroke-width="5.33333" stroke-miterlimit="10" stroke-linecap="round" stroke-linejoin="round"/>
<path d="M340.396 186.098V164.227" stroke="#FF870F" stroke-width="5.33333" stroke-miterlimit="10" stroke-linecap="round" stroke-linejoin="round"/>
<path d="M299.593 107.24C299.593 107.24 272.607 141.167 213.767 142.167L202.44 142.636C202.44 142.636 182.593 99.9962 222.593 73.9202C262.513 47.8962 299.444 62.8496 299.593 62.9096C301.949 63.8669 308.624 61.6816 311.501 61.9389C331.644 63.7389 339.728 85.3109 342.792 102.455C344.489 111.952 345.037 121.707 344.66 131.342C344.165 143.983 339.515 143.656 328.231 140.232C321.655 138.238 315.303 135.072 310.308 130.282C307.275 127.372 295.661 111.664 299.593 107.24Z" stroke="#FF870F" stroke-width="8" stroke-miterlimit="10" stroke-linejoin="round"/>
<path d="M328.231 140.232C321.656 138.238 315.303 135.072 310.308 130.282C307.275 127.372 295.661 111.664 299.593 107.24C299.593 107.24 272.607 141.167 213.767 142.167V175.926C213.767 208.23 239.955 234.419 272.26 234.419C304.565 234.419 330.752 208.23 330.752 175.926V140.972C329.951 140.747 329.113 140.5 328.231 140.232Z" stroke="#FF870F" stroke-width="8" stroke-miterlimit="10" stroke-linejoin="round"/>
<path d="M274.284 234.368C273.613 234.411 272.938 234.435 272.26 234.435C271.582 234.435 270.909 234.411 270.24 234.368C265.408 234.203 260.726 233.453 256.26 232.185V256.385H288.26V232.185C283.796 233.452 279.114 234.203 274.284 234.368Z" stroke="#FF870F" stroke-width="8" stroke-miterlimit="10" stroke-linejoin="round"/>
<path d="M206.927 186.359V275.727" stroke="#FF870F" stroke-width="8" stroke-miterlimit="10" stroke-linejoin="round"/>
<path d="M336.704 186.359V275.727" stroke="#FF870F" stroke-width="8" stroke-miterlimit="10" stroke-linejoin="round"/>
<path d="M307.353 151.934C307.512 152.078 307.927 152.254 308.247 152.387C308.592 152.53 308.953 152.654 309.319 152.762C310.052 152.978 310.812 153.12 311.592 153.176C312.373 153.231 313.157 153.16 313.956 152.975C314.757 152.791 315.512 152.407 316.26 151.914C315.856 152.691 315.332 153.487 314.62 154.132C313.916 154.778 313.088 155.348 312.189 155.775C311.292 156.203 310.335 156.531 309.349 156.76C308.856 156.876 308.357 156.971 307.845 157.036C307.309 157.1 306.871 157.163 306.188 157.138L307.353 151.934Z" fill="#FF870F" stroke="#FF870F" stroke-width="0.133333"/>
<path d="M238.267 157.138C237.583 157.163 237.144 157.1 236.608 157.036C236.097 156.971 235.597 156.876 235.105 156.76C234.12 156.531 233.163 156.203 232.264 155.775C231.365 155.348 230.537 154.778 229.835 154.132C229.121 153.487 228.599 152.691 228.193 151.914C228.941 152.407 229.695 152.791 230.497 152.975C231.296 153.16 232.08 153.231 232.861 153.176C233.641 153.12 234.401 152.978 235.135 152.762C235.501 152.654 235.861 152.53 236.207 152.387C236.527 152.254 236.943 152.078 237.101 151.934L238.267 157.138Z" fill="#FF870F" stroke="#FF870F" stroke-width="0.133333"/>
<path d="M272.26 333.915L310.549 258.854C305.153 257.256 299.447 256.386 293.533 256.386H272.26H250.987C245.075 256.386 239.367 257.256 233.971 258.854L272.26 333.915Z" stroke="#FF870F" stroke-width="8" stroke-miterlimit="10" stroke-linejoin="round"/>
<path d="M246.599 283.606C246.599 283.606 269.855 292.966 297.923 283.606L272.26 333.915L246.599 283.606Z" stroke="#FF870F" stroke-width="8" stroke-miterlimit="10" stroke-linejoin="round"/>
<path d="M218.412 198.806V234.419" stroke="#FF870F" stroke-width="5.33333" stroke-miterlimit="10" stroke-linecap="round" stroke-linejoin="round"/>
<path d="M218.412 245.915V253.582" stroke="#FF870F" stroke-width="5.33333" stroke-miterlimit="10" stroke-linecap="round" stroke-linejoin="round"/>
<path d="M231.407 217.775V259.662" stroke="#FF870F" stroke-width="5.33333" stroke-miterlimit="10" stroke-linecap="round" stroke-linejoin="round"/>
<path d="M245.679 228.031V245.915" stroke="#FF870F" stroke-width="5.33333" stroke-miterlimit="10" stroke-linecap="round" stroke-linejoin="round"/>
<path d="M302.071 226.256V256.996" stroke="#FF870F" stroke-width="5.33333" stroke-miterlimit="10" stroke-linecap="round" stroke-linejoin="round"/>
<path d="M326.666 197.407V242.316" stroke="#FF870F" stroke-width="5.33333" stroke-miterlimit="10" stroke-linecap="round" stroke-linejoin="round"/>
<path d="M326.666 249.748V266.384" stroke="#FF870F" stroke-width="5.33333" stroke-miterlimit="10" stroke-linecap="round" stroke-linejoin="round"/>
<path d="M314.277 216.612V231.043" stroke="#FF870F" stroke-width="5.33333" stroke-miterlimit="10" stroke-linecap="round" stroke-linejoin="round"/>
<path d="M314.277 238.718V244.286" stroke="#FF870F" stroke-width="5.33333" stroke-miterlimit="10" stroke-linecap="round" stroke-linejoin="round"/>
<path d="M314.277 251.692V260.466" stroke="#FF870F" stroke-width="5.33333" stroke-miterlimit="10" stroke-linecap="round" stroke-linejoin="round"/>
<path d="M240.018 270.704C240.018 270.704 271.414 278.384 304.504 270.704" stroke="#FF870F" stroke-width="8" stroke-miterlimit="10" stroke-linejoin="round"/>
<path d="M331.636 330.306C331.636 337.798 325.563 343.871 318.071 343.871C310.579 343.871 304.504 337.798 304.504 330.306C304.504 322.812 310.579 316.739 318.071 316.739C325.563 316.739 331.636 322.812 331.636 330.306Z" stroke="#FF870F" stroke-width="8" stroke-miterlimit="10" stroke-linejoin="round"/>
<path d="M114.406 183.446C96.1834 186.092 74.41 172.704 55.4121 150.896C36.8198 129.555 26.0501 106.291 30.5116 88.6455L46.3438 74.8549L64.2736 95.4362L52.5444 105.654C52.5444 105.654 59.2813 141.636 98.9632 158.938L110.692 148.72L129.493 170.302L114.406 183.446Z" stroke="#FF870F" stroke-width="8" stroke-miterlimit="10" stroke-linecap="round" stroke-linejoin="round"/>
<path d="M106.784 58.5803C87.875 58.5803 72.5469 68.8629 72.5469 81.5456C72.5469 89.4749 78.5363 96.4643 87.6458 100.591C86.9969 105.312 84.8593 112.426 78.2109 118.451C78.2109 118.451 92.0207 115.86 101.412 104.228C103.162 104.414 104.956 104.511 106.784 104.511C125.693 104.511 141.021 94.2296 141.021 81.5456C141.021 68.8629 125.693 58.5803 106.784 58.5803Z" stroke="#FF870F" stroke-width="8" stroke-miterlimit="10" stroke-linecap="round" stroke-linejoin="round"/>
<path d="M137.73 122.206C138.596 122.206 139.343 121.914 139.97 121.33C140.576 120.724 140.879 119.956 140.879 119.025C140.879 118.095 140.576 117.348 139.97 116.786C139.343 116.202 138.596 115.909 137.73 115.909C136.843 115.909 136.097 116.202 135.491 116.786C134.885 117.348 134.582 118.095 134.582 119.025C134.582 119.956 134.885 120.724 135.491 121.33C136.097 121.914 136.843 122.206 137.73 122.206ZM129.236 122.206C130.101 122.206 130.848 121.914 131.475 121.33C132.081 120.724 132.384 119.956 132.384 119.025C132.384 118.095 132.081 117.348 131.475 116.786C130.848 116.202 130.101 115.909 129.236 115.909C128.348 115.909 127.602 116.202 126.996 116.786C126.39 117.348 126.087 118.095 126.087 119.025C126.087 119.956 126.39 120.724 126.996 121.33C127.602 121.914 128.348 122.206 129.236 122.206ZM120.741 122.206C121.606 122.206 122.353 121.914 122.98 121.33C123.586 120.724 123.889 119.956 123.889 119.025C123.889 118.095 123.586 117.348 122.98 116.786C122.353 116.202 121.606 115.909 120.741 115.909C119.854 115.909 119.107 116.202 118.501 116.786C117.895 117.348 117.592 118.095 117.592 119.025C117.592 119.956 117.895 120.724 118.501 121.33C119.107 121.914 119.854 122.206 120.741 122.206Z" fill="#FF870F"/>
<path d="M139.97 121.33L140.441 121.801L140.433 121.81L140.424 121.818L139.97 121.33ZM135.491 116.786L135.954 117.266L135.945 117.274L135.491 116.786ZM135.491 121.33L135.028 121.81L135.019 121.801L135.491 121.33ZM137.73 122.206V121.54C138.429 121.54 139.013 121.31 139.516 120.842L139.97 121.33L140.424 121.818C139.672 122.518 138.763 122.873 137.73 122.873V122.206ZM139.97 121.33L139.499 120.858C139.968 120.389 140.212 119.796 140.212 119.025H140.879H141.546C141.546 120.116 141.184 121.059 140.441 121.801L139.97 121.33ZM140.879 119.025H140.212C140.212 118.255 139.969 117.694 139.516 117.274L139.97 116.786L140.424 116.297C141.183 117.002 141.546 117.935 141.546 119.025H140.879ZM139.97 116.786L139.516 117.274C139.013 116.806 138.429 116.576 137.73 116.576V115.909V115.243C138.763 115.243 139.672 115.597 140.424 116.297L139.97 116.786ZM137.73 115.909V116.576C137.006 116.576 136.428 116.808 135.954 117.266L135.491 116.786L135.028 116.306C135.765 115.595 136.681 115.243 137.73 115.243V115.909ZM135.491 116.786L135.945 117.274C135.492 117.694 135.249 118.255 135.249 119.025H134.582H133.915C133.915 117.935 134.278 117.002 135.037 116.297L135.491 116.786ZM134.582 119.025H135.249C135.249 119.796 135.493 120.389 135.962 120.858L135.491 121.33L135.019 121.801C134.277 121.059 133.915 120.116 133.915 119.025H134.582ZM135.491 121.33L135.954 120.85C136.428 121.307 137.006 121.54 137.73 121.54V122.206V122.873C136.681 122.873 135.765 122.521 135.028 121.81L135.491 121.33ZM131.475 121.33L131.947 121.801L131.938 121.81L131.93 121.818L131.475 121.33ZM131.475 116.786L131.022 117.274H131.021L131.475 116.786ZM126.996 116.786L127.459 117.266L127.45 117.274L126.996 116.786ZM126.996 121.33L126.533 121.81L126.525 121.801L126.996 121.33ZM129.236 122.206V121.54C129.934 121.54 130.518 121.31 131.021 120.842L131.475 121.33L131.93 121.818C131.177 122.518 130.268 122.873 129.236 122.873V122.206ZM131.475 121.33L131.004 120.858C131.473 120.389 131.717 119.796 131.717 119.025H132.384H133.051C133.051 120.116 132.689 121.059 131.947 121.801L131.475 121.33ZM132.384 119.025H131.717C131.717 118.255 131.474 117.694 131.022 117.274L131.475 116.786L131.929 116.297C132.688 117.002 133.051 117.935 133.051 119.025H132.384ZM131.475 116.786L131.021 117.274C130.518 116.806 129.934 116.576 129.236 116.576V115.909V115.243C130.268 115.243 131.177 115.598 131.93 116.298L131.475 116.786ZM129.236 115.909V116.576C128.511 116.576 127.933 116.808 127.459 117.266L126.996 116.786L126.533 116.306C127.271 115.595 128.186 115.243 129.236 115.243V115.909ZM126.996 116.786L127.45 117.274C126.997 117.694 126.754 118.255 126.754 119.025H126.087H125.421C125.421 117.935 125.783 117.002 126.542 116.297L126.996 116.786ZM126.087 119.025H126.754C126.754 119.796 126.998 120.389 127.467 120.858L126.996 121.33L126.525 121.801C125.782 121.059 125.421 120.116 125.421 119.025H126.087ZM126.996 121.33L127.459 120.85C127.933 121.307 128.511 121.54 129.236 121.54V122.206V122.873C128.186 122.873 127.271 122.521 126.533 121.81L126.996 121.33ZM122.98 121.33L123.452 121.801L123.443 121.81L123.435 121.818L122.98 121.33ZM118.501 116.786L118.964 117.266L118.955 117.274L118.501 116.786ZM118.501 121.33L118.038 121.81L118.03 121.801L118.501 121.33ZM120.741 122.206V121.54C121.44 121.54 122.023 121.31 122.526 120.842L122.98 121.33L123.435 121.818C122.683 122.518 121.773 122.873 120.741 122.873V122.206ZM122.98 121.33L122.509 120.858C122.979 120.389 123.223 119.796 123.223 119.025H123.889H124.556C124.556 120.116 124.194 121.059 123.452 121.801L122.98 121.33ZM123.889 119.025H123.223C123.223 118.255 122.979 117.694 122.527 117.274L122.98 116.786L123.434 116.297C124.194 117.002 124.556 117.935 124.556 119.025H123.889ZM122.98 116.786L122.527 117.274C122.024 116.806 121.44 116.576 120.741 116.576V115.909V115.243C121.773 115.243 122.683 115.598 123.435 116.298L122.98 116.786ZM120.741 115.909V116.576C120.016 116.576 119.438 116.808 118.964 117.266L118.501 116.786L118.039 116.306C118.776 115.595 119.691 115.243 120.741 115.243V115.909ZM118.501 116.786L118.955 117.274C118.503 117.694 118.259 118.255 118.259 119.025H117.592H116.926C116.926 117.935 117.288 117.002 118.048 116.297L118.501 116.786ZM117.592 119.025H118.259C118.259 119.796 118.503 120.389 118.973 120.858L118.501 121.33L118.03 121.801C117.288 121.059 116.926 120.116 116.926 119.025H117.592ZM118.501 121.33L118.964 120.85C119.438 121.307 120.016 121.54 120.741 121.54V122.206V122.873C119.691 122.873 118.775 122.521 118.038 121.81L118.501 121.33Z" fill="#FF870F"/>
<path d="M146.628 135.183C155.737 131.056 161.726 124.066 161.726 116.138C161.726 105.352 150.64 96.3083 135.694 93.8416C129.621 100.254 118.948 104.511 106.784 104.511C104.956 104.511 103.162 104.414 101.412 104.228C99.1348 107.048 96.5968 109.334 94.0597 111.183C93.5362 112.78 93.252 114.436 93.252 116.138C93.252 128.822 108.58 139.103 127.489 139.103C129.317 139.103 131.11 139.006 132.861 138.82C142.252 150.452 156.062 153.042 156.062 153.042C149.413 147.018 147.276 139.904 146.628 135.183Z" stroke="#FF870F" stroke-width="8" stroke-miterlimit="10" stroke-linecap="round" stroke-linejoin="round"/>
<path d="M492.86 123.442C492.86 146.955 473.8 166.016 450.287 166.016C426.773 166.016 407.712 146.955 407.712 123.442C407.712 99.9283 426.773 80.8683 450.287 80.8683C473.8 80.8683 492.86 99.9283 492.86 123.442Z" stroke="#FF870F" stroke-width="8" stroke-miterlimit="10" stroke-linecap="round" stroke-linejoin="round"/>
<path d="M401.188 84.9029C412.588 70.6202 430.147 61.4695 449.843 61.4695C484.204 61.4695 512.061 89.3255 512.061 123.688C512.061 149.27 496.623 171.246 474.553 180.807" stroke="#FF870F" stroke-width="8" stroke-miterlimit="10" stroke-linecap="round" stroke-linejoin="round"/>
<path d="M474.279 123.442C474.279 146.955 463.536 166.016 450.287 166.016C437.035 166.016 426.293 146.955 426.293 123.442C426.293 99.9283 437.035 80.8683 450.287 80.8683C463.536 80.8683 474.279 99.9283 474.279 123.442Z" stroke="#FF870F" stroke-width="8" stroke-miterlimit="10" stroke-linecap="round" stroke-linejoin="round"/>
<path d="M450.287 80.8683V166.016" stroke="#FF870F" stroke-width="8" stroke-miterlimit="10" stroke-linecap="round" stroke-linejoin="round"/>
<path d="M407.712 123.442H492.86" stroke="#FF870F" stroke-width="8" stroke-miterlimit="10" stroke-linecap="round" stroke-linejoin="round"/>
<path d="M412.475 88.1655L397.184 86.9055L398.456 71.4535" stroke="#FF870F" stroke-width="8" stroke-miterlimit="10" stroke-linecap="round" stroke-linejoin="round"/>
<path d="M392.759 194.439V191.273L400.901 183.583C401.544 183 402.017 182.477 402.318 182.015C402.62 181.553 402.821 181.131 402.921 180.749C403.042 180.367 403.102 180.015 403.102 179.693C403.102 178.849 402.811 178.206 402.228 177.763C401.665 177.301 400.831 177.07 399.725 177.07C398.84 177.07 398.016 177.241 397.252 177.582C396.508 177.924 395.875 178.457 395.353 179.181L391.794 176.889C392.598 175.683 393.724 174.728 395.172 174.024C396.619 173.321 398.288 172.969 400.177 172.969C401.745 172.969 403.112 173.23 404.278 173.753C405.464 174.255 406.379 174.969 407.022 175.894C407.686 176.818 408.018 177.924 408.018 179.211C408.018 179.894 407.927 180.578 407.746 181.261C407.585 181.925 407.244 182.628 406.721 183.372C406.218 184.116 405.474 184.95 404.489 185.875L397.735 192.238L396.8 190.458H408.711V194.439H392.759ZM410.162 190.006V186.719L420.113 173.331H425.239L415.499 186.719L413.117 186.026H429.732V190.006H410.162ZM421.53 194.439V190.006L421.681 186.026V182.075H426.294V194.439H421.53ZM446.994 173.331H451.879V194.439H446.994V173.331ZM437.405 194.439H432.52V173.331H437.405V194.439ZM447.356 185.784H437.043V181.653H447.356V185.784Z" fill="#FF870F"/>
<path d="M392.759 194.439H392.093V195.106H392.759V194.439ZM392.759 191.273L392.302 190.788L392.093 190.985V191.273H392.759ZM400.901 183.583L400.453 183.089L400.443 183.098L400.901 183.583ZM402.921 180.749L402.286 180.548L402.281 180.563L402.277 180.579L402.921 180.749ZM402.228 177.763L401.805 178.278L401.815 178.287L401.825 178.294L402.228 177.763ZM397.252 177.582L396.98 176.974L396.974 176.977L397.252 177.582ZM395.353 179.181L394.992 179.741L395.523 180.083L395.893 179.571L395.353 179.181ZM391.794 176.889L391.24 176.519L390.864 177.083L391.433 177.449L391.794 176.889ZM404.278 173.753L404.006 174.361L404.018 174.367L404.278 173.753ZM407.022 175.894L406.475 176.274L406.481 176.282L407.022 175.894ZM407.746 181.261L407.102 181.091L407.098 181.104L407.746 181.261ZM406.721 183.372L406.175 182.989L406.168 182.999L406.721 183.372ZM404.489 185.875L404.033 185.389L404.032 185.39L404.489 185.875ZM397.735 192.238L397.145 192.548L397.553 193.325L398.192 192.723L397.735 192.238ZM396.8 190.458V189.792H395.697L396.21 190.769L396.8 190.458ZM408.711 190.458H409.378V189.792H408.711V190.458ZM408.711 194.439V195.106H409.378V194.439H408.711ZM392.759 194.439H393.426V191.273H392.759H392.093V194.439H392.759ZM392.759 191.273L393.217 191.757L401.359 184.068L400.901 183.583L400.443 183.098L392.302 190.788L392.759 191.273ZM400.901 183.583L401.349 184.077C402.013 183.475 402.531 182.909 402.877 182.379L402.318 182.015L401.76 181.651C401.502 182.046 401.076 182.525 400.453 183.089L400.901 183.583ZM402.318 182.015L402.877 182.379C403.203 181.879 403.442 181.391 403.566 180.918L402.921 180.749L402.277 180.579C402.2 180.87 402.037 181.226 401.76 181.651L402.318 182.015ZM402.921 180.749L403.557 180.949C403.693 180.518 403.769 180.097 403.769 179.693H403.102H402.436C402.436 179.932 402.391 180.216 402.286 180.548L402.921 180.749ZM403.102 179.693H403.769C403.769 178.677 403.407 177.821 402.631 177.232L402.228 177.763L401.825 178.294C402.215 178.59 402.436 179.021 402.436 179.693H403.102ZM402.228 177.763L402.651 177.248C401.921 176.648 400.909 176.403 399.725 176.403V177.07V177.736C400.753 177.736 401.409 177.954 401.805 178.278L402.228 177.763ZM399.725 177.07V176.403C398.752 176.403 397.834 176.592 396.98 176.974L397.252 177.582L397.525 178.191C398.198 177.89 398.929 177.736 399.725 177.736V177.07ZM397.252 177.582L396.974 176.977C396.116 177.371 395.396 177.982 394.812 178.79L395.353 179.181L395.893 179.571C396.355 178.932 396.901 178.478 397.531 178.188L397.252 177.582ZM395.353 179.181L395.714 178.62L392.155 176.328L391.794 176.889L391.433 177.449L394.992 179.741L395.353 179.181ZM391.794 176.889L392.349 177.259C393.08 176.162 394.11 175.281 395.463 174.624L395.172 174.024L394.88 173.425C393.338 174.174 392.117 175.204 391.24 176.519L391.794 176.889ZM395.172 174.024L395.463 174.624C396.805 173.971 398.371 173.635 400.177 173.635V172.969V172.302C398.204 172.302 396.433 172.67 394.88 173.425L395.172 174.024ZM400.177 172.969V173.635C401.672 173.635 402.943 173.885 404.006 174.361L404.278 173.753L404.551 173.144C403.282 172.576 401.819 172.302 400.177 172.302V172.969ZM404.278 173.753L404.018 174.367C405.106 174.827 405.914 175.467 406.475 176.274L407.022 175.894L407.57 175.513C406.845 174.471 405.823 173.683 404.538 173.139L404.278 173.753ZM407.022 175.894L406.481 176.282C407.052 177.079 407.351 178.045 407.351 179.211H408.018H408.684C408.684 177.804 408.319 176.558 407.564 175.505L407.022 175.894ZM408.018 179.211H407.351C407.351 179.835 407.268 180.461 407.102 181.091L407.746 181.261L408.391 181.432C408.586 180.695 408.684 179.954 408.684 179.211H408.018ZM407.746 181.261L407.098 181.104C406.962 181.664 406.665 182.292 406.175 182.989L406.721 183.372L407.266 183.755C407.822 182.965 408.208 182.185 408.394 181.418L407.746 181.261ZM406.721 183.372L406.168 182.999C405.704 183.687 404.998 184.483 404.033 185.389L404.489 185.875L404.946 186.361C405.951 185.418 406.733 184.545 407.273 183.745L406.721 183.372ZM404.489 185.875L404.032 185.39L397.278 191.752L397.735 192.238L398.192 192.723L404.947 186.36L404.489 185.875ZM397.735 192.238L398.325 191.927L397.39 190.148L396.8 190.458L396.21 190.769L397.145 192.548L397.735 192.238ZM396.8 190.458V191.125H408.711V190.458V189.792H396.8V190.458ZM408.711 190.458H408.044V194.439H408.711H409.378V190.458H408.711ZM408.711 194.439V193.772H392.759V194.439V195.106H408.711V194.439ZM410.162 190.006H409.495V190.673H410.162V190.006ZM410.162 186.719L409.627 186.322L409.495 186.499V186.719H410.162ZM420.113 173.331V172.664H419.777L419.578 172.933L420.113 173.331ZM425.239 173.331L425.778 173.723L426.548 172.664H425.239V173.331ZM415.499 186.719L415.313 187.359L415.762 187.49L416.038 187.111L415.499 186.719ZM413.117 186.026V185.359L412.93 186.666L413.117 186.026ZM429.732 186.026H430.399V185.359H429.732V186.026ZM429.732 190.006V190.673H430.399V190.006H429.732ZM421.53 194.439H420.863V195.106H421.53V194.439ZM421.53 190.006L420.864 189.981L420.863 189.993V190.006H421.53ZM421.681 186.026L422.347 186.051V186.038V186.026H421.681ZM421.681 182.075V181.409H421.014V182.075H421.681ZM426.294 182.075H426.961V181.409H426.294V182.075ZM426.294 194.439V195.106H426.961V194.439H426.294ZM410.162 190.006H410.828V186.719H410.162H409.495V190.006H410.162ZM410.162 186.719L410.697 187.117L420.648 173.728L420.113 173.331L419.578 172.933L409.627 186.322L410.162 186.719ZM420.113 173.331V173.997H425.239V173.331V172.664H420.113V173.331ZM425.239 173.331L424.7 172.938L414.96 186.327L415.499 186.719L416.038 187.111L425.778 173.723L425.239 173.331ZM415.499 186.719L415.685 186.079L413.303 185.386L413.117 186.026L412.93 186.666L415.313 187.359L415.499 186.719ZM413.117 186.026V186.692H429.732V186.026V185.359H413.117V186.026ZM429.732 186.026H429.065V190.006H429.732H430.399V186.026H429.732ZM429.732 190.006V189.339H410.162V190.006V190.673H429.732V190.006ZM421.53 194.439H422.197V190.006H421.53H420.863V194.439H421.53ZM421.53 190.006L422.196 190.031L422.347 186.051L421.681 186.026L421.014 186L420.864 189.981L421.53 190.006ZM421.681 186.026H422.347V182.075H421.681H421.014V186.026H421.681ZM421.681 182.075V182.742H426.294V182.075V181.409H421.681V182.075ZM426.294 182.075H425.628V194.439H426.294H426.961V182.075H426.294ZM426.294 194.439V193.772H421.53V194.439V195.106H426.294V194.439ZM446.994 173.331V172.664H446.327V173.331H446.994ZM451.879 173.331H452.546V172.664H451.879V173.331ZM451.879 194.439V195.106H452.546V194.439H451.879ZM446.994 194.439H446.327V195.106H446.994V194.439ZM437.405 194.439V195.106H438.072V194.439H437.405ZM432.52 194.439H431.853V195.106H432.52V194.439ZM432.52 173.331V172.664H431.853V173.331H432.52ZM437.405 173.331H438.072V172.664H437.405V173.331ZM447.356 185.784V186.451H448.023V185.784H447.356ZM437.043 185.784H436.376V186.451H437.043V185.784ZM437.043 181.653V180.987H436.376V181.653H437.043ZM447.356 181.653H448.023V180.987H447.356V181.653ZM446.994 173.331V173.997H451.879V173.331V172.664H446.994V173.331ZM451.879 173.331H451.212V194.439H451.879H452.546V173.331H451.879ZM451.879 194.439V193.772H446.994V194.439V195.106H451.879V194.439ZM446.994 194.439H447.661V173.331H446.994H446.327V194.439H446.994ZM437.405 194.439V193.772H432.52V194.439V195.106H437.405V194.439ZM432.52 194.439H433.187V173.331H432.52H431.853V194.439H432.52ZM432.52 173.331V173.997H437.405V173.331V172.664H432.52V173.331ZM437.405 173.331H436.738V194.439H437.405H438.072V173.331H437.405ZM447.356 185.784V185.118H437.043V185.784V186.451H447.356V185.784ZM437.043 185.784H437.71V181.653H437.043H436.376V185.784H437.043ZM437.043 181.653V182.32H447.356V181.653V180.987H437.043V181.653ZM447.356 181.653H446.689V185.784H447.356H448.023V181.653H447.356Z" fill="#FF870F"/>
<path d="M147.833 325.519H11.1665V238.718H147.833V325.519Z" stroke="#FF870F" stroke-width="8" stroke-miterlimit="10" stroke-linecap="round" stroke-linejoin="round"/>
<path d="M137.611 310.04H21.3892V249.311H137.611V310.04Z" stroke="#FF870F" stroke-width="5.33333" stroke-miterlimit="10" stroke-linecap="round" stroke-linejoin="round"/>
<path d="M146.5 337.742H12.5C7.80573 337.742 4 333.935 4 329.242V325.519H155V329.242C155 333.935 151.195 337.742 146.5 337.742Z" stroke="#FF870F" stroke-width="8" stroke-miterlimit="10" stroke-linecap="round" stroke-linejoin="round"/>
<path d="M114.167 299.675H44.8335V259.675H114.167V299.675Z" stroke="#FF870F" stroke-width="5.33333" stroke-miterlimit="10" stroke-linecap="round" stroke-linejoin="round"/>
<path d="M44.8335 259.675L79.5002 279.675L114.167 259.675H44.8335Z" stroke="#FF870F" stroke-width="5.33333" stroke-miterlimit="10" stroke-linecap="round" stroke-linejoin="round"/>
<path d="M508.427 287.776C509.277 285.012 509.736 282.078 509.736 279.035C509.736 262.618 496.428 249.311 480.012 249.311C463.595 249.311 450.287 262.618 450.287 279.035C450.287 282.078 450.745 285.012 451.595 287.776C452.076 289.342 452.687 290.85 453.408 292.292L480.012 333.915L506.615 292.292C507.336 290.85 507.947 289.342 508.427 287.776Z" stroke="#FF870F" stroke-width="8" stroke-miterlimit="10" stroke-linecap="round" stroke-linejoin="round"/>
<path d="M495.453 279.035C495.453 287.564 488.54 294.478 480.012 294.478C471.483 294.478 464.569 287.564 464.569 279.035C464.569 270.507 471.483 263.592 480.012 263.592C488.54 263.592 495.453 270.507 495.453 279.035Z" stroke="#FF870F" stroke-width="5.33333" stroke-miterlimit="10" stroke-linecap="round" stroke-linejoin="round"/>
<path d="M387.28 259.227C378.054 259.227 370.577 251.75 370.577 242.524C370.577 233.299 378.054 225.819 387.28 225.819C396.505 225.819 403.984 233.299 403.984 242.524C403.984 251.75 396.505 259.227 387.28 259.227ZM419.482 249.724V235.322H412.976C412.397 233.251 411.576 231.282 410.541 229.446L415.142 224.844L404.96 214.66L400.357 219.262C398.522 218.228 396.553 217.407 394.481 216.827V210.32H380.078V216.827C378.006 217.407 376.037 218.228 374.201 219.262L369.6 214.66L359.416 224.844L364.018 229.446C362.984 231.282 362.162 233.251 361.582 235.322H355.077V249.724H361.582C362.162 251.796 362.984 253.766 364.018 255.6L359.416 260.202L369.6 270.387L374.201 265.786C376.037 266.819 378.006 267.642 380.078 268.22V274.727H394.481V268.22C396.553 267.642 398.522 266.819 400.357 265.786L404.96 270.387L415.142 260.202L410.541 255.6C411.576 253.766 412.397 251.796 412.976 249.724H419.482Z" stroke="#FF870F" stroke-width="5.33333" stroke-miterlimit="10" stroke-linejoin="round"/>
<path d="M419.233 306.222C413.258 306.998 407.788 302.783 407.012 296.81C406.237 290.834 410.452 285.363 416.425 284.588C422.4 283.812 427.87 288.027 428.646 294C429.421 299.975 425.208 305.447 419.233 306.222ZM439.289 297.362L438.078 288.035L433.865 288.582C433.316 287.288 432.618 286.083 431.794 284.98L434.388 281.614L426.937 275.874L424.344 279.242C423.068 278.726 421.724 278.36 420.333 278.158L419.786 273.944L410.46 275.155L411.006 279.368C409.713 279.919 408.506 280.615 407.405 281.439L404.038 278.847L398.3 286.298L401.666 288.891C401.15 290.166 400.784 291.511 400.582 292.9L396.369 293.447L397.578 302.775L401.793 302.228C402.342 303.522 403.04 304.727 403.864 305.828L401.27 309.196L408.722 314.935L411.314 311.568C412.59 312.084 413.934 312.45 415.325 312.651L415.872 316.866L425.198 315.654L424.652 311.44C425.945 310.891 427.152 310.194 428.253 309.37L431.62 311.963L437.358 304.512L433.993 301.919C434.508 300.644 434.874 299.299 435.076 297.908L439.289 297.362Z" stroke="#FF870F" stroke-width="4" stroke-miterlimit="10" stroke-linejoin="round"/>
<path d="M85.0396 337.742C85.6177 338.047 86.2604 338.222 86.9166 338.222C87.5478 338.222 88.1833 338.055 88.777 337.742H85.0396Z" fill="#FF870F" stroke="#FF870F" stroke-width="0.133333"/>
<path d="M226.307 130.414C223.735 130.732 221.103 130.96 218.412 131.086" stroke="#FF870F" stroke-width="5.33333" stroke-miterlimit="10" stroke-linecap="round" stroke-linejoin="round"/>
<path d="M289.816 100.608C289.816 100.608 269.717 120.787 237.684 128.366" stroke="#FF870F" stroke-width="5.33333" stroke-miterlimit="10" stroke-linecap="round" stroke-linejoin="round"/>
<path d="M230.167 118.892C225.919 119.851 221.476 120.622 216.865 121.138" stroke="#FF870F" stroke-width="5.33333" stroke-miterlimit="10" stroke-linecap="round" stroke-linejoin="round"/>
<path d="M248.093 113.456C245.651 114.388 243.103 115.282 240.456 116.114" stroke="#FF870F" stroke-width="5.33333" stroke-miterlimit="10" stroke-linecap="round" stroke-linejoin="round"/>
<path d="M283.085 93.8415C283.085 93.8415 274.543 101.102 260.068 108.231" stroke="#FF870F" stroke-width="5.33333" stroke-miterlimit="10" stroke-linecap="round" stroke-linejoin="round"/>
<path d="M278.079 86.1962C278.079 86.1962 253.293 105.086 221.776 111.086" stroke="#FF870F" stroke-width="5.33333" stroke-miterlimit="10" stroke-linecap="round" stroke-linejoin="round"/>
<path d="M263.749 83.9749C263.749 83.9749 243.237 93.4309 228.193 101.036" stroke="#FF870F" stroke-width="5.33333" stroke-miterlimit="10" stroke-linecap="round" stroke-linejoin="round"/>
<path d="M310.549 104.642C310.549 104.642 317.125 121.976 330.752 128.366" stroke="#FF870F" stroke-width="5.33333" stroke-miterlimit="10" stroke-linecap="round" stroke-linejoin="round"/>
<path d="M305.149 91.5295C305.149 91.5295 319.96 99.3082 325.999 112.196" stroke="#FF870F" stroke-width="5.33333" stroke-miterlimit="10" stroke-linecap="round" stroke-linejoin="round"/>
<path d="M258.031 453.478C382.316 453.478 483.07 352.725 483.07 228.439C483.07 104.153 382.316 3.3999 258.031 3.3999C133.745 3.3999 32.9917 104.153 32.9917 228.439C32.9917 352.725 133.745 453.478 258.031 453.478Z" stroke="#FF870F" stroke-width="6.80315" stroke-linejoin="round" stroke-dasharray="20.41 6.8"/>
<path d="M55.0139 123.53L59.1803 130.644L53.6523 142.531L48.9609 136.238L55.0139 123.53Z" fill="white"/>
<path d="M54.2483 123.39L55.2648 124.981L49.2102 136.383L49.1016 136.426L48.9375 136.184L54.2483 123.39Z" fill="white"/>
<path d="M59.7812 114.688L61.6875 119L64.9688 120.719L76.2812 103.25L70.2812 98.4375L68.5625 99.0312L59.7812 114.688Z" fill="white"/>
<path d="M78.168 87.5742L82.6797 92.8711L92.6973 82.0244L87.3719 76.7874L84.4109 77.5829L78.168 87.5742Z" fill="white"/>
<path d="M111.016 63.0209L110.641 62.75L100.344 63.0781C99.8281 63.3047 91.2031 72.2422 91.2031 72.2422L95.0938 76L96.3984 77.0469L97.9141 75.2656L111.016 63.0209Z" fill="white"/>
<path d="M104.443 85.3654C104.443 84.5593 104.562 83.8455 104.8 83.2236C105.059 82.6019 105.373 82.0491 105.741 81.5655C106.13 81.0819 106.542 80.6328 106.974 80.2183C107.407 79.8037 107.807 79.4122 108.175 79.0437C108.565 78.6523 108.878 78.2492 109.117 77.8347C109.376 77.4201 109.506 76.9595 109.506 76.4529C109.506 75.6238 109.181 74.956 108.532 74.4493C107.905 73.9427 107.061 73.6893 106.001 73.6893C104.984 73.6893 104.075 73.9197 103.274 74.3802C102.474 74.8178 101.814 75.4396 101.294 76.2457L97.367 73.793C98.2326 72.3881 99.4335 71.2712 100.97 70.4422C102.506 69.59 104.367 69.164 106.552 69.164C108.175 69.164 109.603 69.4173 110.837 69.924C112.07 70.4076 113.033 71.1215 113.726 72.0658C114.44 73.0099 114.797 74.173 114.797 75.5547C114.797 76.4529 114.667 77.2474 114.407 77.9383C114.147 78.6292 113.812 79.228 113.401 79.7347C112.99 80.2413 112.546 80.7134 112.07 81.1509C111.616 81.5886 111.183 82.0146 110.772 82.4291C110.361 82.8437 110.015 83.2812 109.733 83.7419C109.474 84.2024 109.344 84.7437 109.344 85.3654H104.443ZM106.909 94.0362C106.001 94.0362 105.254 93.7253 104.67 93.1034C104.086 92.4816 103.793 91.7447 103.793 90.8925C103.793 90.0175 104.086 89.2921 104.67 88.7163C105.254 88.1175 106.001 87.8181 106.909 87.8181C107.84 87.8181 108.586 88.1175 109.149 88.7163C109.733 89.2921 110.025 90.0175 110.025 90.8925C110.025 91.7447 109.733 92.4816 109.149 93.1034C108.586 93.7253 107.84 94.0362 106.909 94.0362Z" fill="#FF870F"/>
<path d="M99.5651 68.0344L92.2908 64.9372L87.5286 76.1218L94.803 79.2191L99.5651 68.0344Z" fill="white"/>
<path d="M412.194 69.2081L418.188 65.4531L418.156 65.5156L412.194 69.2081Z" fill="white"/>
<path d="M409.578 66.9375L412.195 69.2031L418.171 65.5234L417.939 65.0925L416.425 63.4131L415.656 62.5625L414.188 61.375L409.578 66.9375Z" fill="white"/>
<path d="M417.812 75.3511C417.812 75.3511 421.679 71.8818 424.794 71.3294C427.91 70.777 429.302 77.2293 429.302 77.2293L422.143 83.1513L417.812 75.3511Z" fill="white"/>
<path d="M417.878 74.9975L424.485 71.3294C425.546 70.9758 417.878 74.9975 417.878 74.9975Z" fill="white"/>
<path d="M417.966 75.0196C417.966 75.0196 423.91 71.462 424.109 71.5062C424.308 71.5504 418.011 75.3511 418.011 75.3511L417.966 75.0196Z" fill="white"/>
<path d="M436.148 96.5312C436.148 96.5312 439.467 90.9185 440.13 90.4655C440.793 90.0125 446.008 98.3652 446.008 98.3652L444.185 100.354L440.439 102.906L436.148 96.5312Z" fill="white"/>
<path d="M446.281 106.41L446.285 111.426L443.703 107.906L446.281 106.41Z" fill="white"/>
<path d="M454.289 111.457L454.281 119.469L458.937 119.438L454.289 111.457Z" fill="white"/>
<path d="M456.594 117.531L458.969 116.188L454.531 111.094L454.344 110.875V112.25L456.594 117.531Z" fill="white"/>
<path d="M456.128 130.903L463.199 127.677L468.426 139.137L468.441 139.324L464.68 149.421" fill="white"/>
<path d="M463.906 130.55L465.144 129.798L467.707 137.002L467.53 138.063L463.906 130.55Z" fill="white"/>
<path d="M465.033 149.1L468.406 139.438L467.938 139.344C467.938 139.344 464.281 148.719 465.033 149.1Z" fill="white"/>
<path d="M470.562 165.387L476.625 161.859L480.037 172.004L480.117 173.074L479.828 173.574L472.789 176.379L470.562 165.387Z" fill="white"/>
<path d="M475.348 184.746C475.348 184.746 481.639 181.97 481.75 181.771C481.86 181.572 481.871 182.19 481.871 182.19L475.198 185.251L475.348 184.746Z" fill="white"/>
<path d="M479.031 245.324L485.828 245.797C485.828 245.797 486.094 245.469 486.125 245.563C486.156 245.656 486.156 245.656 486.156 245.656L486.719 235.937L486.688 234.031C486.688 234.031 476.219 224.594 477.594 234.406C478.969 244.219 479.031 245.324 479.031 245.324Z" fill="white"/>
<path d="M478.225 253.409C478.225 253.409 482.545 252.746 485.097 253.851C487.65 254.956 484.092 256.293 484.092 256.293L477.297 255.586L478.137 253.398L478.225 253.409Z" fill="white"/>
<path d="M479.507 291.593C486.097 291.593 491.439 285.875 491.439 278.821C491.439 271.767 486.097 266.049 479.507 266.049C472.917 266.049 467.574 271.767 467.574 278.821C467.574 285.875 472.917 291.593 479.507 291.593Z" fill="white"/>
<path d="M469.74 294.002L476.148 296.764L472.104 310L468.259 308.011L466.182 304.785L466.845 299.526L469.74 294.002Z" fill="white"/>
<path d="M29.668 234.703L36.4844 234.719L36.7696 227.909C36.7696 227.909 28.7704 220.396 29.668 234.703Z" fill="white"/>
<path d="M28.682 227.821C28.682 227.821 29.9637 225.169 30.3172 228.616C30.6708 232.064 30.6708 232.064 30.6708 232.064C30.6708 232.064 25.942 234.892 28.682 227.821Z" fill="white"/>
<path d="M30.0078 242.727L37.3359 242.711L37.2578 246.641H29.8516L30.0078 242.727Z" fill="white"/>
<path d="M29.375 255.75L38.625 255L41.875 276.125L36 277.875C36 277.875 33.125 300.625 29.375 255.75Z" fill="white"/>
<path d="M42.1602 282.258L42.1563 302.34H45.75L45.5781 302.926L42 303.828L39.9062 300.016L34.5 285.188L33.6875 282.438L42.1602 282.258Z" fill="white"/>
<path d="M45.6367 312.703H52.9766L54.125 314.562L56.8242 321.508H49.3281L44.4375 314.234L45.6367 312.703Z" fill="white"/>
<path d="M58.7383 333.738H62.957L62.4062 332.293L62.0859 331.785L58.7383 333.738Z" fill="white"/>
<path d="M59.6172 341.746L67.5156 341.742L68.1797 342.797L59.3438 342.812L59.6172 341.746Z" fill="white"/>
</svg>
